<?xml version="1.0" encoding="UTF-8" standalone="no"?><svg xmlns="http://www.w3.org/2000/svg" xmlns:xlink="http://www.w3.org/1999/xlink" contentScriptType="application/ecmascript" contentStyleType="text/css" height="1122px" preserveAspectRatio="none" style="width:1498px;height:1122px;" version="1.1" viewBox="0 0 1498 1122" width="1498px" zoomAndPan="magnify"><defs><filter height="300%" id="f1h639m41w4kvz" width="300%" x="-1" y="-1"><feGaussianBlur result="blurOut" stdDeviation="2.0"/><feColorMatrix in="blurOut" result="blurOut2" type="matrix" values="0 0 0 0 0 0 0 0 0 0 0 0 0 0 0 0 0 0 .4 0"/><feOffset dx="4.0" dy="4.0" in="blurOut2" result="blurOut3"/><feBlend in="SourceGraphic" in2="blurOut3" mode="normal"/></filter></defs><g><!--cluster literals--><polygon fill="#FFFFFF" filter="url(#f1h639m41w4kvz)" points="447.5,24,501.5,24,508.5,51.2813,771.5,51.2813,771.5,906,447.5,906,447.5,24" style="stroke: #000000; stroke-width: 2.0;"/><line style="stroke: #000000; stroke-width: 2.0;" x1="447.5" x2="508.5" y1="51.2813" y2="51.2813"/><text fill="#000000" font-family="Segoe UI Semibold" font-size="16" font-weight="bold" lengthAdjust="spacingAndGlyphs" textLength="48" x="451.5" y="43.2656">literals</text><!--class literal--><rect fill="#FEFECE" filter="url(#f1h639m41w4kvz)" height="154.4063" id="literal" style="stroke: #A80036; stroke-width: 1.5;" width="105" x="614" y="736"/><ellipse cx="643.4" cy="752" fill="#ADD1B2" rx="11" ry="11" style="stroke: #A80036; stroke-width: 1.0;"/><path d="M645.5563,747.4844 L645.7125,747.5625 C645.9156,747.2656 646.1188,747.1719 646.3844,747.1719 C646.6656,747.1719 646.9313,747.3125 647.0719,747.5625 C647.1656,747.7031 647.1813,747.8281 647.1813,748.2344 L647.1813,749.5781 C647.1813,749.9688 647.15,750.1406 647.0406,750.2969 C646.8844,750.5 646.6344,750.625 646.3844,750.625 C646.1813,750.625 645.9469,750.5313 645.8219,750.4063 C645.6969,750.2813 645.6656,750.1563 645.6031,749.7813 C645.525,749.3906 645.3531,749.1875 644.9,748.9375 C644.4625,748.6875 643.8844,748.5469 643.3375,748.5469 C641.7125,748.5469 640.525,749.7813 640.525,751.4531 L640.525,752.4844 C640.525,754.0781 641.7594,755.125 643.6813,755.125 C644.4,755.125 645.0406,755 645.4469,754.75 C645.6188,754.6563 645.6188,754.6563 646.0406,754.2188 C646.2281,754.0313 646.4156,753.9531 646.6188,753.9531 C647.0563,753.9531 647.4313,754.3281 647.4313,754.75 C647.4313,755.125 647.1188,755.5469 646.5719,755.9219 C645.8688,756.4375 644.7906,756.7188 643.6344,756.7188 C640.9156,756.7188 638.9313,754.9531 638.9313,752.5156 L638.9313,751.4531 C638.9313,748.9063 640.8219,746.9531 643.275,746.9531 C644.1188,746.9531 644.6656,747.0781 645.5563,747.4844 Z "/><text fill="#000000" font-family="Segoe UI Semibold" font-size="16" lengthAdjust="spacingAndGlyphs" textLength="41" x="660.6" y="758.625">literal</text><line style="stroke: #A80036; stroke-width: 1.5;" x1="615" x2="718" y1="768" y2="768"/><text fill="#000000" font-family="Segoe UI Semibold" font-size="16" lengthAdjust="spacingAndGlyphs" textLength="83" x="620" y="789.2656">stringliteral</text><text fill="#000000" font-family="Segoe UI Semibold" font-size="16" lengthAdjust="spacingAndGlyphs" textLength="81" x="620" y="810.5469">bytesliteral</text><text fill="#000000" font-family="Segoe UI Semibold" font-size="16" lengthAdjust="spacingAndGlyphs" textLength="53" x="620" y="831.8281">integer</text><text fill="#000000" font-family="Segoe UI Semibold" font-size="16" lengthAdjust="spacingAndGlyphs" textLength="91" x="620" y="853.1094">floatnumber</text><text fill="#000000" font-family="Segoe UI Semibold" font-size="16" lengthAdjust="spacingAndGlyphs" textLength="93" x="620" y="874.3906">imagnumber</text><line style="stroke: #A80036; stroke-width: 1.5;" x1="615" x2="718" y1="882.4063" y2="882.4063"/><!--class stringliteral--><rect fill="#FEFECE" filter="url(#f1h639m41w4kvz)" height="48" id="stringliteral" style="stroke: #A80036; stroke-width: 1.5;" width="115" x="464" y="789"/><ellipse cx="479" cy="805" fill="#ADD1B2" rx="11" ry="11" style="stroke: #A80036; stroke-width: 1.0;"/><path d="M481.1563,800.4844 L481.3125,800.5625 C481.5156,800.2656 481.7188,800.1719 481.9844,800.1719 C482.2656,800.1719 482.5313,800.3125 482.6719,800.5625 C482.7656,800.7031 482.7813,800.8281 482.7813,801.2344 L482.7813,802.5781 C482.7813,802.9688 482.75,803.1406 482.6406,803.2969 C482.4844,803.5 482.2344,803.625 481.9844,803.625 C481.7813,803.625 481.5469,803.5313 481.4219,803.4063 C481.2969,803.2813 481.2656,803.1563 481.2031,802.7813 C481.125,802.3906 480.9531,802.1875 480.5,801.9375 C480.0625,801.6875 479.4844,801.5469 478.9375,801.5469 C477.3125,801.5469 476.125,802.7813 476.125,804.4531 L476.125,805.4844 C476.125,807.0781 477.3594,808.125 479.2813,808.125 C480,808.125 480.6406,808 481.0469,807.75 C481.2188,807.6563 481.2188,807.6563 481.6406,807.2188 C481.8281,807.0313 482.0156,806.9531 482.2188,806.9531 C482.6563,806.9531 483.0313,807.3281 483.0313,807.75 C483.0313,808.125 482.7188,808.5469 482.1719,808.9219 C481.4688,809.4375 480.3906,809.7188 479.2344,809.7188 C476.5156,809.7188 474.5313,807.9531 474.5313,805.5156 L474.5313,804.4531 C474.5313,801.9063 476.4219,799.9531 478.875,799.9531 C479.7188,799.9531 480.2656,800.0781 481.1563,800.4844 Z "/><text fill="#000000" font-family="Segoe UI Semibold" font-size="16" lengthAdjust="spacingAndGlyphs" textLength="83" x="493" y="811.625">stringliteral</text><line style="stroke: #A80036; stroke-width: 1.5;" x1="465" x2="578" y1="821" y2="821"/><line style="stroke: #A80036; stroke-width: 1.5;" x1="465" x2="578" y1="829" y2="829"/><!--class bytesliteral--><rect fill="#FEFECE" filter="url(#f1h639m41w4kvz)" height="48" id="bytesliteral" style="stroke: #A80036; stroke-width: 1.5;" width="113" x="642" y="563"/><ellipse cx="657" cy="579" fill="#ADD1B2" rx="11" ry="11" style="stroke: #A80036; stroke-width: 1.0;"/><path d="M659.1563,574.4844 L659.3125,574.5625 C659.5156,574.2656 659.7188,574.1719 659.9844,574.1719 C660.2656,574.1719 660.5313,574.3125 660.6719,574.5625 C660.7656,574.7031 660.7813,574.8281 660.7813,575.2344 L660.7813,576.5781 C660.7813,576.9688 660.75,577.1406 660.6406,577.2969 C660.4844,577.5 660.2344,577.625 659.9844,577.625 C659.7813,577.625 659.5469,577.5313 659.4219,577.4063 C659.2969,577.2813 659.2656,577.1563 659.2031,576.7813 C659.125,576.3906 658.9531,576.1875 658.5,575.9375 C658.0625,575.6875 657.4844,575.5469 656.9375,575.5469 C655.3125,575.5469 654.125,576.7813 654.125,578.4531 L654.125,579.4844 C654.125,581.0781 655.3594,582.125 657.2813,582.125 C658,582.125 658.6406,582 659.0469,581.75 C659.2188,581.6563 659.2188,581.6563 659.6406,581.2188 C659.8281,581.0313 660.0156,580.9531 660.2188,580.9531 C660.6563,580.9531 661.0313,581.3281 661.0313,581.75 C661.0313,582.125 660.7188,582.5469 660.1719,582.9219 C659.4688,583.4375 658.3906,583.7188 657.2344,583.7188 C654.5156,583.7188 652.5313,581.9531 652.5313,579.5156 L652.5313,578.4531 C652.5313,575.9063 654.4219,573.9531 656.875,573.9531 C657.7188,573.9531 658.2656,574.0781 659.1563,574.4844 Z "/><text fill="#000000" font-family="Segoe UI Semibold" font-size="16" lengthAdjust="spacingAndGlyphs" textLength="81" x="671" y="585.625">bytesliteral</text><line style="stroke: #A80036; stroke-width: 1.5;" x1="643" x2="754" y1="595" y2="595"/><line style="stroke: #A80036; stroke-width: 1.5;" x1="643" x2="754" y1="603" y2="603"/><!--class imagnumber--><rect fill="#FEFECE" filter="url(#f1h639m41w4kvz)" height="90.5625" id="imagnumber" style="stroke: #A80036; stroke-width: 1.5;" width="125" x="533" y="64"/><ellipse cx="548" cy="80" fill="#ADD1B2" rx="11" ry="11" style="stroke: #A80036; stroke-width: 1.0;"/><path d="M550.1563,75.4844 L550.3125,75.5625 C550.5156,75.2656 550.7188,75.1719 550.9844,75.1719 C551.2656,75.1719 551.5313,75.3125 551.6719,75.5625 C551.7656,75.7031 551.7813,75.8281 551.7813,76.2344 L551.7813,77.5781 C551.7813,77.9688 551.75,78.1406 551.6406,78.2969 C551.4844,78.5 551.2344,78.625 550.9844,78.625 C550.7813,78.625 550.5469,78.5313 550.4219,78.4063 C550.2969,78.2813 550.2656,78.1563 550.2031,77.7813 C550.125,77.3906 549.9531,77.1875 549.5,76.9375 C549.0625,76.6875 548.4844,76.5469 547.9375,76.5469 C546.3125,76.5469 545.125,77.7813 545.125,79.4531 L545.125,80.4844 C545.125,82.0781 546.3594,83.125 548.2813,83.125 C549,83.125 549.6406,83 550.0469,82.75 C550.2188,82.6563 550.2188,82.6563 550.6406,82.2188 C550.8281,82.0313 551.0156,81.9531 551.2188,81.9531 C551.6563,81.9531 552.0313,82.3281 552.0313,82.75 C552.0313,83.125 551.7188,83.5469 551.1719,83.9219 C550.4688,84.4375 549.3906,84.7188 548.2344,84.7188 C545.5156,84.7188 543.5313,82.9531 543.5313,80.5156 L543.5313,79.4531 C543.5313,76.9063 545.4219,74.9531 547.875,74.9531 C548.7188,74.9531 549.2656,75.0781 550.1563,75.4844 Z "/><text fill="#000000" font-family="Segoe UI Semibold" font-size="16" lengthAdjust="spacingAndGlyphs" textLength="93" x="562" y="86.625">imagnumber</text><line style="stroke: #A80036; stroke-width: 1.5;" x1="534" x2="657" y1="96" y2="96"/><text fill="#000000" font-family="Segoe UI Semibold" font-size="16" lengthAdjust="spacingAndGlyphs" textLength="91" x="539" y="117.2656">floatnumber</text><text fill="#000000" font-family="Segoe UI Semibold" font-size="16" lengthAdjust="spacingAndGlyphs" textLength="64" x="539" y="138.5469">digitpart</text><line style="stroke: #A80036; stroke-width: 1.5;" x1="534" x2="657" y1="146.5625" y2="146.5625"/><!--class floatnumber--><rect fill="#FEFECE" filter="url(#f1h639m41w4kvz)" height="48" id="floatnumber" style="stroke: #A80036; stroke-width: 1.5;" width="123" x="632" y="225.5"/><ellipse cx="647" cy="241.5" fill="#ADD1B2" rx="11" ry="11" style="stroke: #A80036; stroke-width: 1.0;"/><path d="M649.1563,236.9844 L649.3125,237.0625 C649.5156,236.7656 649.7188,236.6719 649.9844,236.6719 C650.2656,236.6719 650.5313,236.8125 650.6719,237.0625 C650.7656,237.2031 650.7813,237.3281 650.7813,237.7344 L650.7813,239.0781 C650.7813,239.4688 650.75,239.6406 650.6406,239.7969 C650.4844,240 650.2344,240.125 649.9844,240.125 C649.7813,240.125 649.5469,240.0313 649.4219,239.9063 C649.2969,239.7813 649.2656,239.6563 649.2031,239.2813 C649.125,238.8906 648.9531,238.6875 648.5,238.4375 C648.0625,238.1875 647.4844,238.0469 646.9375,238.0469 C645.3125,238.0469 644.125,239.2813 644.125,240.9531 L644.125,241.9844 C644.125,243.5781 645.3594,244.625 647.2813,244.625 C648,244.625 648.6406,244.5 649.0469,244.25 C649.2188,244.1563 649.2188,244.1563 649.6406,243.7188 C649.8281,243.5313 650.0156,243.4531 650.2188,243.4531 C650.6563,243.4531 651.0313,243.8281 651.0313,244.25 C651.0313,244.625 650.7188,245.0469 650.1719,245.4219 C649.4688,245.9375 648.3906,246.2188 647.2344,246.2188 C644.5156,246.2188 642.5313,244.4531 642.5313,242.0156 L642.5313,240.9531 C642.5313,238.4063 644.4219,236.4531 646.875,236.4531 C647.7188,236.4531 648.2656,236.5781 649.1563,236.9844 Z "/><text fill="#000000" font-family="Segoe UI Semibold" font-size="16" lengthAdjust="spacingAndGlyphs" textLength="91" x="661" y="248.125">floatnumber</text><line style="stroke: #A80036; stroke-width: 1.5;" x1="633" x2="754" y1="257.5" y2="257.5"/><line style="stroke: #A80036; stroke-width: 1.5;" x1="633" x2="754" y1="265.5" y2="265.5"/><!--class integer--><rect fill="#FEFECE" filter="url(#f1h639m41w4kvz)" height="48" id="integer" style="stroke: #A80036; stroke-width: 1.5;" width="85" x="636" y="367"/><ellipse cx="651" cy="383" fill="#ADD1B2" rx="11" ry="11" style="stroke: #A80036; stroke-width: 1.0;"/><path d="M653.1563,378.4844 L653.3125,378.5625 C653.5156,378.2656 653.7188,378.1719 653.9844,378.1719 C654.2656,378.1719 654.5313,378.3125 654.6719,378.5625 C654.7656,378.7031 654.7813,378.8281 654.7813,379.2344 L654.7813,380.5781 C654.7813,380.9688 654.75,381.1406 654.6406,381.2969 C654.4844,381.5 654.2344,381.625 653.9844,381.625 C653.7813,381.625 653.5469,381.5313 653.4219,381.4063 C653.2969,381.2813 653.2656,381.1563 653.2031,380.7813 C653.125,380.3906 652.9531,380.1875 652.5,379.9375 C652.0625,379.6875 651.4844,379.5469 650.9375,379.5469 C649.3125,379.5469 648.125,380.7813 648.125,382.4531 L648.125,383.4844 C648.125,385.0781 649.3594,386.125 651.2813,386.125 C652,386.125 652.6406,386 653.0469,385.75 C653.2188,385.6563 653.2188,385.6563 653.6406,385.2188 C653.8281,385.0313 654.0156,384.9531 654.2188,384.9531 C654.6563,384.9531 655.0313,385.3281 655.0313,385.75 C655.0313,386.125 654.7188,386.5469 654.1719,386.9219 C653.4688,387.4375 652.3906,387.7188 651.2344,387.7188 C648.5156,387.7188 646.5313,385.9531 646.5313,383.5156 L646.5313,382.4531 C646.5313,379.9063 648.4219,377.9531 650.875,377.9531 C651.7188,377.9531 652.2656,378.0781 653.1563,378.4844 Z "/><text fill="#000000" font-family="Segoe UI Semibold" font-size="16" lengthAdjust="spacingAndGlyphs" textLength="53" x="665" y="389.625">integer</text><line style="stroke: #A80036; stroke-width: 1.5;" x1="637" x2="720" y1="399" y2="399"/><line style="stroke: #A80036; stroke-width: 1.5;" x1="637" x2="720" y1="407" y2="407"/><!--class digitpart--><rect fill="#FEFECE" filter="url(#f1h639m41w4kvz)" height="69.2813" id="digitpart" style="stroke: #A80036; stroke-width: 1.5;" width="96" x="463.5" y="215"/><ellipse cx="478.5" cy="231" fill="#ADD1B2" rx="11" ry="11" style="stroke: #A80036; stroke-width: 1.0;"/><path d="M480.6563,226.4844 L480.8125,226.5625 C481.0156,226.2656 481.2188,226.1719 481.4844,226.1719 C481.7656,226.1719 482.0313,226.3125 482.1719,226.5625 C482.2656,226.7031 482.2813,226.8281 482.2813,227.2344 L482.2813,228.5781 C482.2813,228.9688 482.25,229.1406 482.1406,229.2969 C481.9844,229.5 481.7344,229.625 481.4844,229.625 C481.2813,229.625 481.0469,229.5313 480.9219,229.4063 C480.7969,229.2813 480.7656,229.1563 480.7031,228.7813 C480.625,228.3906 480.4531,228.1875 480,227.9375 C479.5625,227.6875 478.9844,227.5469 478.4375,227.5469 C476.8125,227.5469 475.625,228.7813 475.625,230.4531 L475.625,231.4844 C475.625,233.0781 476.8594,234.125 478.7813,234.125 C479.5,234.125 480.1406,234 480.5469,233.75 C480.7188,233.6563 480.7188,233.6563 481.1406,233.2188 C481.3281,233.0313 481.5156,232.9531 481.7188,232.9531 C482.1563,232.9531 482.5313,233.3281 482.5313,233.75 C482.5313,234.125 482.2188,234.5469 481.6719,234.9219 C480.9688,235.4375 479.8906,235.7188 478.7344,235.7188 C476.0156,235.7188 474.0313,233.9531 474.0313,231.5156 L474.0313,230.4531 C474.0313,227.9063 475.9219,225.9531 478.375,225.9531 C479.2188,225.9531 479.7656,226.0781 480.6563,226.4844 Z "/><text fill="#000000" font-family="Segoe UI Semibold" font-size="16" lengthAdjust="spacingAndGlyphs" textLength="64" x="492.5" y="237.625">digitpart</text><line style="stroke: #A80036; stroke-width: 1.5;" x1="464.5" x2="558.5" y1="247" y2="247"/><text fill="#000000" font-family="Segoe UI Semibold" font-size="16" lengthAdjust="spacingAndGlyphs" textLength="34" x="469.5" y="268.2656">digit</text><line style="stroke: #A80036; stroke-width: 1.5;" x1="464.5" x2="558.5" y1="276.2813" y2="276.2813"/><polygon fill="#FFFFE6" filter="url(#f1h639m41w4kvz)" points="686,1013,686,1050.9846,1035,1050.9846,1035,1023,1025,1013,686,1013" style="stroke: #A80036; stroke-width: 1.0;"/><polygon fill="#FFFFE6" points="686,1013,686,1050.9846,1035,1050.9846,1035,1023,1025,1013,848.394,1013,719.255,873.01,840.394,1013,686,1013" style="stroke: #A80036; stroke-width: 1.0;"/><line style="stroke: #A80036; stroke-width: 1.0;" x1="1025" x2="1025" y1="1013" y2="1023"/><line style="stroke: #A80036; stroke-width: 1.0;" x1="1035" x2="1025" y1="1023" y2="1023"/><text fill="#4169E1" font-family="Courier" font-size="14" lengthAdjust="spacingAndGlyphs" textLength="104" x="692" y="1031.1458">stringliteral</text><text fill="#000000" font-family="Courier" font-size="14" lengthAdjust="spacingAndGlyphs" textLength="208" x="804" y="1031.1458">| bytesliteral | integer |</text><text fill="#000000" font-family="Courier" font-size="14" lengthAdjust="spacingAndGlyphs" textLength="192" x="692" y="1045.1381">floatnumber | imagnumber</text><polygon fill="#FFFFE6" filter="url(#f1h639m41w4kvz)" points="6,950,6,1113.9154,651,1113.9154,651,960,641,950,6,950" style="stroke: #A80036; stroke-width: 1.0;"/><polygon fill="#FFFFE6" points="6,950,6,1113.9154,651,1113.9154,651,960,641,950,404.786,950,500.846,837.223,396.786,950,6,950" style="stroke: #A80036; stroke-width: 1.0;"/><line style="stroke: #A80036; stroke-width: 1.0;" x1="641" x2="641" y1="950" y2="960"/><line style="stroke: #A80036; stroke-width: 1.0;" x1="651" x2="641" y1="960" y2="960"/><text fill="#000000" font-family="Courier" font-size="14" lengthAdjust="spacingAndGlyphs" textLength="488" x="12" y="968.1458">stringliteral   ::=  [stringprefix](shortstring | longstring)</text><text fill="#000000" font-family="Courier" font-size="14" lengthAdjust="spacingAndGlyphs" textLength="0" x="20" y="982.1381"/><text fill="#000000" font-family="Courier" font-size="14" lengthAdjust="spacingAndGlyphs" textLength="432" x="12" y="996.1304">stringprefix    ::=  "r" | "u" | "R" | "U" | "f" | "F"</text><text fill="#000000" font-family="Courier" font-size="14" lengthAdjust="spacingAndGlyphs" textLength="440" x="180" y="1010.1227">| "fr" | "Fr" | "fR" | "FR" | "rf" | "rF" | "Rf" | "RF"</text><text fill="#000000" font-family="Courier" font-size="14" lengthAdjust="spacingAndGlyphs" textLength="576" x="12" y="1024.115">shortstring     ::=  "'" shortstringitem* "'" | '"' shortstringitem* '"'</text><text fill="#000000" font-family="Courier" font-size="14" lengthAdjust="spacingAndGlyphs" textLength="416" x="12" y="1038.1073">longstring      ::=  "'''" longstringitem* "'''" | '</text><text fill="#000000" font-family="monospace" font-size="14" lengthAdjust="spacingAndGlyphs" textLength="160" x="428" y="1038.1073">"' longstringitem* '</text><text fill="#000000" font-family="Courier" font-size="14" lengthAdjust="spacingAndGlyphs" textLength="16" x="588" y="1038.1073">"'</text><text fill="#000000" font-family="Courier" font-size="14" lengthAdjust="spacingAndGlyphs" textLength="432" x="12" y="1052.0996">shortstringitem ::=  shortstringchar | stringescapeseq</text><text fill="#000000" font-family="Courier" font-size="14" lengthAdjust="spacingAndGlyphs" textLength="424" x="12" y="1066.0919">longstringitem  ::=  longstringchar | stringescapeseq</text><text fill="#000000" font-family="Courier" font-size="14" lengthAdjust="spacingAndGlyphs" textLength="624" x="12" y="1080.0842">shortstringchar ::=  &lt;any source character except "\" or newline or the quote&gt;</text><text fill="#000000" font-family="Courier" font-size="14" lengthAdjust="spacingAndGlyphs" textLength="432" x="12" y="1094.0766">longstringchar  ::=  &lt;any source character except "\"&gt;</text><text fill="#000000" font-family="Courier" font-size="14" lengthAdjust="spacingAndGlyphs" textLength="376" x="12" y="1108.0689">stringescapeseq ::=  "\" &lt;any source character&gt;</text><polygon fill="#FFFFE6" filter="url(#f1h639m41w4kvz)" points="788,738,788,887.9231,1489,887.9231,1489,748,1479,738,788,738" style="stroke: #A80036; stroke-width: 1.0;"/><line style="stroke: #A80036; stroke-width: 1.0;" x1="1479" x2="1479" y1="738" y2="748"/><line style="stroke: #A80036; stroke-width: 1.0;" x1="1489" x2="1479" y1="748" y2="748"/><text fill="#000000" font-family="Courier" font-size="14" lengthAdjust="spacingAndGlyphs" textLength="440" x="794" y="756.1458">bytesliteral   ::=  bytesprefix(shortbytes | longbytes)</text><text fill="#000000" font-family="Courier" font-size="14" lengthAdjust="spacingAndGlyphs" textLength="0" x="802" y="770.1381"/><text fill="#000000" font-family="Courier" font-size="14" lengthAdjust="spacingAndGlyphs" textLength="680" x="794" y="784.1304">bytesprefix    ::=  "b" | "B" | "br" | "Br" | "bR" | "BR" | "rb" | "rB" | "Rb" | "RB"</text><text fill="#000000" font-family="Courier" font-size="14" lengthAdjust="spacingAndGlyphs" textLength="552" x="794" y="798.1227">shortbytes     ::=  "'" shortbytesitem* "'" | '"' shortbytesitem* '"'</text><text fill="#000000" font-family="Courier" font-size="14" lengthAdjust="spacingAndGlyphs" textLength="400" x="794" y="812.115">longbytes      ::=  "'''" longbytesitem* "'''" | '</text><text fill="#000000" font-family="monospace" font-size="14" lengthAdjust="spacingAndGlyphs" textLength="152" x="1194" y="812.115">"' longbytesitem* '</text><text fill="#000000" font-family="Courier" font-size="14" lengthAdjust="spacingAndGlyphs" textLength="16" x="1346" y="812.115">"'</text><text fill="#000000" font-family="Courier" font-size="14" lengthAdjust="spacingAndGlyphs" textLength="408" x="794" y="826.1073">shortbytesitem ::=  shortbyteschar | bytesescapeseq</text><text fill="#000000" font-family="Courier" font-size="14" lengthAdjust="spacingAndGlyphs" textLength="400" x="794" y="840.0996">longbytesitem  ::=  longbyteschar | bytesescapeseq</text><text fill="#000000" font-family="Courier" font-size="14" lengthAdjust="spacingAndGlyphs" textLength="608" x="794" y="854.0919">shortbyteschar ::=  &lt;any ASCII character except "\" or newline or the quote&gt;</text><text fill="#000000" font-family="Courier" font-size="14" lengthAdjust="spacingAndGlyphs" textLength="416" x="794" y="868.0842">longbyteschar  ::=  &lt;any ASCII character except "\"&gt;</text><text fill="#000000" font-family="Courier" font-size="14" lengthAdjust="spacingAndGlyphs" textLength="360" x="794" y="882.0766">bytesescapeseq ::=  "\" &lt;any ASCII character&gt;</text><polygon fill="#FFFFE6" filter="url(#f1h639m41w4kvz)" points="790,498,790,675.9077,1347,675.9077,1347,508,1337,498,790,498" style="stroke: #A80036; stroke-width: 1.0;"/><line style="stroke: #A80036; stroke-width: 1.0;" x1="1337" x2="1337" y1="498" y2="508"/><line style="stroke: #A80036; stroke-width: 1.0;" x1="1347" x2="1337" y1="508" y2="508"/><text fill="#000000" font-family="Courier" font-size="14" lengthAdjust="spacingAndGlyphs" textLength="536" x="796" y="516.1458">integer      ::=  decinteger | bininteger | octinteger | hexinteger</text><text fill="#000000" font-family="Courier" font-size="14" lengthAdjust="spacingAndGlyphs" textLength="0" x="804" y="530.1381"/><text fill="#000000" font-family="Courier" font-size="14" lengthAdjust="spacingAndGlyphs" textLength="520" x="796" y="544.1304">decinteger   ::=  nonzerodigit (["_"] digit)* | "0"+ (["_"] "0")*</text><text fill="#000000" font-family="Courier" font-size="14" lengthAdjust="spacingAndGlyphs" textLength="408" x="796" y="558.1227">bininteger   ::=  "0" ("b" | "B") (["_"] bindigit)+</text><text fill="#000000" font-family="Courier" font-size="14" lengthAdjust="spacingAndGlyphs" textLength="408" x="796" y="572.115">octinteger   ::=  "0" ("o" | "O") (["_"] octdigit)+</text><text fill="#000000" font-family="Courier" font-size="14" lengthAdjust="spacingAndGlyphs" textLength="408" x="796" y="586.1073">hexinteger   ::=  "0" ("x" | "X") (["_"] hexdigit)+</text><text fill="#000000" font-family="Courier" font-size="14" lengthAdjust="spacingAndGlyphs" textLength="0" x="804" y="600.0996"/><text fill="#000000" font-family="Courier" font-size="14" lengthAdjust="spacingAndGlyphs" textLength="216" x="796" y="614.0919">nonzerodigit ::=  "1"..."9"</text><text fill="#000000" font-family="Courier" font-size="14" lengthAdjust="spacingAndGlyphs" textLength="216" x="796" y="628.0842">digit        ::=  "0"..."9"</text><text fill="#000000" font-family="Courier" font-size="14" lengthAdjust="spacingAndGlyphs" textLength="216" x="796" y="642.0766">bindigit     ::=  "0" | "1"</text><text fill="#000000" font-family="Courier" font-size="14" lengthAdjust="spacingAndGlyphs" textLength="216" x="796" y="656.0689">octdigit     ::=  "0"..."7"</text><text fill="#000000" font-family="Courier" font-size="14" lengthAdjust="spacingAndGlyphs" textLength="376" x="796" y="670.0612">hexdigit     ::=  digit | "a"..."f" | "A"..."F"</text><polygon fill="#FFFFE6" filter="url(#f1h639m41w4kvz)" points="788,344,788,437.9539,1249,437.9539,1249,354,1239,344,788,344" style="stroke: #A80036; stroke-width: 1.0;"/><polygon fill="#FFFFE6" points="788,344,788,437.9539,1249,437.9539,1249,354,1239,344,915.136,344,747.167,273.536,907.136,344,788,344" style="stroke: #A80036; stroke-width: 1.0;"/><line style="stroke: #A80036; stroke-width: 1.0;" x1="1239" x2="1239" y1="344" y2="354"/><line style="stroke: #A80036; stroke-width: 1.0;" x1="1249" x2="1239" y1="354" y2="354"/><text fill="#000000" font-family="Courier" font-size="14" lengthAdjust="spacingAndGlyphs" textLength="360" x="794" y="362.1458">floatnumber   ::=  pointfloat | exponentfloat</text><text fill="#000000" font-family="Courier" font-size="14" lengthAdjust="spacingAndGlyphs" textLength="0" x="802" y="376.1381"/><text fill="#000000" font-family="Courier" font-size="14" lengthAdjust="spacingAndGlyphs" textLength="440" x="794" y="390.1304">pointfloat    ::=  [digitpart] fraction | digitpart "."</text><text fill="#000000" font-family="Courier" font-size="14" lengthAdjust="spacingAndGlyphs" textLength="416" x="794" y="404.1227">exponentfloat ::=  (digitpart | pointfloat) exponent</text><text fill="#000000" font-family="Courier" font-size="14" lengthAdjust="spacingAndGlyphs" textLength="256" x="794" y="418.115">fraction      ::=  "." digitpart</text><text fill="#000000" font-family="Courier" font-size="14" lengthAdjust="spacingAndGlyphs" textLength="416" x="794" y="432.1073">exponent      ::=  ("e" | "E") ["+" | "-"] digitpart</text><polygon fill="#FFFFE6" filter="url(#f1h639m41w4kvz)" points="790,237.5,790,261.4923,1235,261.4923,1235,247.5,1225,237.5,790,237.5" style="stroke: #A80036; stroke-width: 1.0;"/><polygon fill="#FFFFE6" points="790,237.5,790,261.4923,1235,261.4923,1235,247.5,1225,237.5,983.027,237.5,658.381,131.309,975.027,237.5,790,237.5" style="stroke: #A80036; stroke-width: 1.0;"/><line style="stroke: #A80036; stroke-width: 1.0;" x1="1225" x2="1225" y1="237.5" y2="247.5"/><line style="stroke: #A80036; stroke-width: 1.0;" x1="1235" x2="1225" y1="247.5" y2="247.5"/><text fill="#000000" font-family="Courier" font-size="14" lengthAdjust="spacingAndGlyphs" textLength="424" x="796" y="255.6458">imagnumber ::=  (floatnumber | digitpart) ("j" | "J")</text><polygon fill="#FFFFE6" filter="url(#f1h639m41w4kvz)" points="98,97.5,98,121.4923,431,121.4923,431,107.5,421,97.5,98,97.5" style="stroke: #A80036; stroke-width: 1.0;"/><polygon fill="#FFFFE6" points="98,97.5,98,121.4923,280.296,121.4923,463.051,221.431,288.296,121.4923,431,121.4923,431,107.5,421,97.5,98,97.5" style="stroke: #A80036; stroke-width: 1.0;"/><line style="stroke: #A80036; stroke-width: 1.0;" x1="421" x2="421" y1="97.5" y2="107.5"/><line style="stroke: #A80036; stroke-width: 1.0;" x1="431" x2="421" y1="107.5" y2="107.5"/><text fill="#000000" font-family="Courier" font-size="14" lengthAdjust="spacingAndGlyphs" textLength="312" x="104" y="115.6458">digitpart     ::=  digit (["_"] digit)*</text><!--link stringliteral to literal--><path d="M579.273,813 C584.023,813 588.773,813 593.523,813 " fill="none" id="stringliteral-literal" style="stroke: #A80036; stroke-width: 1.0;"/><polygon fill="none" points="593.687,806,613.687,813,593.687,820,593.687,806" style="stroke: #A80036; stroke-width: 1.0;"/><!--link bytesliteral to literal--><path d="M695.196,611.128 C691.64,636.02 685.749,677.257 680.227,715.913 " fill="none" id="bytesliteral-literal" style="stroke: #A80036; stroke-width: 1.0;"/><polygon fill="none" points="687.145,716.982,677.387,735.791,673.286,715.002,687.145,716.982" style="stroke: #A80036; stroke-width: 1.0;"/><!--link integer to literal--><path d="M662.633,415.155 C649.491,435.829 631.827,467.474 624.5,498 C606.035,574.926 612.696,597.774 624.5,676 C626.507,689.298 629.558,703.088 633.12,716.56 " fill="none" id="integer-literal" style="stroke: #A80036; stroke-width: 1.0;"/><polygon fill="none" points="639.904,714.825,638.64,735.977,626.437,718.654,639.904,714.825" style="stroke: #A80036; stroke-width: 1.0;"/><!--link floatnumber to literal--><path d="M668.284,273.657 C651.033,291.156 629.387,316.753 618.5,344 C563.709,481.128 574.599,531.601 605.5,676 C608.426,689.673 612.835,703.634 617.969,717.151 " fill="none" id="floatnumber-literal" style="stroke: #A80036; stroke-width: 1.0;"/><polygon fill="none" points="624.541,714.727,625.634,735.889,611.583,720.027,624.541,714.727" style="stroke: #A80036; stroke-width: 1.0;"/><!--link imagnumber to literal--><path d="M591.948,155.28 C582.276,280.259 557.193,626.931 572.5,676 C579.044,696.978 590.082,717.572 602.34,736.137 " fill="none" id="imagnumber-literal" style="stroke: #A80036; stroke-width: 1.0;"/><polygon fill="none" points="608.107,732.169,613.846,752.567,596.64,740.2,608.107,732.169" style="stroke: #A80036; stroke-width: 1.0;"/><!--link floatnumber to digitpart--><path d="M618.665,249.5 C599.058,249.5 579.451,249.5 559.844,249.5 " fill="none" id="floatnumber-digitpart" style="stroke: #A80036; stroke-width: 1.0;"/><polygon fill="#A80036" points="631.893,249.5,625.893,245.5,619.893,249.5,625.893,253.5,631.893,249.5" style="stroke: #A80036; stroke-width: 1.0;"/><!--link imagnumber to digitpart--><path d="M561.441,166.454 C551.453,182.863 540.842,200.295 531.982,214.85 " fill="none" id="imagnumber-digitpart" style="stroke: #A80036; stroke-width: 1.0;"/><polygon fill="#A80036" points="568.228,155.305,561.6914,158.35,561.9881,165.555,568.5247,162.51,568.228,155.305" style="stroke: #A80036; stroke-width: 1.0;"/><!--link bytesliteral to GMN174465--><path d="M712.934,611.119 C726.258,630.78 747.695,658.527 772.5,676 C806.997,700.301 846.359,720.825 886.179,737.972 " fill="none" id="bytesliteral-GMN174465" style="stroke: #A80036; stroke-width: 1.0; stroke-dasharray: 7.0,7.0;"/><!--link integer to GMN174468--><path d="M721.085,413.322 C736.632,421.099 754.357,429.956 770.5,438 C809.405,457.387 851.187,478.165 890.792,497.84 " fill="none" id="integer-GMN174468" style="stroke: #A80036; stroke-width: 1.0; stroke-dasharray: 7.0,7.0;"/><!--
@startuml
skinparam monochrome false
'skinparam defaultFontName Times New Roman
skinparam defaultFontName Segoe UI Semibold
skinparam defaultFontSize 16
'skinparam backgroundColor #EEEBDC

skinparam note {
  BackgroundColor #ffffe6
  FontSize 14
  FontName Courier
}

package literals  {
class literal {
stringliteral
bytesliteral 
integer 
floatnumber
imagnumber
}


class stringliteral {
}
class bytesliteral {
}
class imagnumber {
floatnumber
digitpart
}

class floatnumber {
}
class integer{
}
class digitpart{
digit
}

stringliteral -|> literal
bytesliteral - -|> literal
integer - - -|> literal
floatnumber - - - -|> literal
imagnumber - - - - -|> literal

floatnumber *- digitpart
imagnumber *- - digitpart
}

note right of literal 
  <color:royalBlue>stringliteral</color> | bytesliteral | integer | 
  floatnumber | imagnumber
end note

note right of stringliteral
stringliteral   ::=  [stringprefix](shortstring | longstring)

stringprefix    ::=  "r" | "u" | "R" | "U" | "f" | "F"
                     | "fr" | "Fr" | "fR" | "FR" | "rf" | "rF" | "Rf" | "RF"
shortstring     ::=  "'" shortstringitem* "'" | '"' shortstringitem* '"'
longstring      ::=  "'''" longstringitem* "'''" | '"""' longstringitem* '"""'
shortstringitem ::=  shortstringchar | stringescapeseq
longstringitem  ::=  longstringchar | stringescapeseq
shortstringchar ::=  <any source character except "\" or newline or the quote>
longstringchar  ::=  <any source character except "\">
stringescapeseq ::=  "\" <any source character>
end note



note right of bytesliteral
bytesliteral   ::=  bytesprefix(shortbytes | longbytes)

bytesprefix    ::=  "b" | "B" | "br" | "Br" | "bR" | "BR" | "rb" | "rB" | "Rb" | "RB"
shortbytes     ::=  "'" shortbytesitem* "'" | '"' shortbytesitem* '"'
longbytes      ::=  "'''" longbytesitem* "'''" | '"""' longbytesitem* '"""'
shortbytesitem ::=  shortbyteschar | bytesescapeseq
longbytesitem  ::=  longbyteschar | bytesescapeseq
shortbyteschar ::=  <any ASCII character except "\" or newline or the quote>
longbyteschar  ::=  <any ASCII character except "\">
bytesescapeseq ::=  "\" <any ASCII character>
end note



note right of integer
integer      ::=  decinteger | bininteger | octinteger | hexinteger

decinteger   ::=  nonzerodigit (["_"] digit)* | "0"+ (["_"] "0")*
bininteger   ::=  "0" ("b" | "B") (["_"] bindigit)+
octinteger   ::=  "0" ("o" | "O") (["_"] octdigit)+
hexinteger   ::=  "0" ("x" | "X") (["_"] hexdigit)+

nonzerodigit ::=  "1"..."9"
digit        ::=  "0"..."9"
bindigit     ::=  "0" | "1"
octdigit     ::=  "0"..."7"
hexdigit     ::=  digit | "a"..."f" | "A"..."F"
end note



note right of floatnumber
floatnumber   ::=  pointfloat | exponentfloat

pointfloat    ::=  [digitpart] fraction | digitpart "."
exponentfloat ::=  (digitpart | pointfloat) exponent
fraction      ::=  "." digitpart
exponent      ::=  ("e" | "E") ["+" | "-"] digitpart
end note

note right of imagnumber
imagnumber ::=  (floatnumber | digitpart) ("j" | "J")
end note

note left of digitpart
digitpart     ::=  digit (["_"] digit)*
end note
@enduml

PlantUML version 1.2017.13(Wed May 10 16:52:33 UTC 2017)
(GPL source distribution)
Java Runtime: Java(TM) SE Runtime Environment
JVM: Java HotSpot(TM) 64-Bit Server VM
Java Version: 1.7.0_25-b15
Operating System: Linux
Default Encoding: UTF-8
Language: en
Country: US
--></g></svg>